<mxfile host="65bd71144e">
    <diagram id="2ksgyWF3tp9E1K3VVl34" name="ページ1">
        <mxGraphModel dx="1386" dy="825" grid="1" gridSize="10" guides="1" tooltips="1" connect="1" arrows="1" fold="1" page="1" pageScale="1" pageWidth="827" pageHeight="1169" math="0" shadow="0">
            <root>
                <mxCell id="0"/>
                <mxCell id="1" parent="0"/>
                <mxCell id="2" value="usecase&amp;nbsp;" style="shape=umlFrame;whiteSpace=wrap;html=1;width=60;height=20;swimlaneFillColor=#FFFFFF;" parent="1" vertex="1">
                    <mxGeometry x="90" y="90" width="840" height="640" as="geometry"/>
                </mxCell>
                <mxCell id="4" value="" style="rounded=0;whiteSpace=wrap;html=1;" parent="1" vertex="1">
                    <mxGeometry x="210" y="110" width="680" height="590" as="geometry"/>
                </mxCell>
                <mxCell id="25" style="edgeStyle=none;html=1;" parent="1" source="5" target="23" edge="1">
                    <mxGeometry relative="1" as="geometry"/>
                </mxCell>
                <mxCell id="26" value="&amp;lt;&amp;lt;include&amp;gt;&amp;gt;" style="edgeLabel;html=1;align=center;verticalAlign=middle;resizable=0;points=[];" parent="25" vertex="1" connectable="0">
                    <mxGeometry x="0.3622" relative="1" as="geometry">
                        <mxPoint x="-26" y="-12" as="offset"/>
                    </mxGeometry>
                </mxCell>
                <mxCell id="29" style="edgeStyle=none;html=1;" parent="1" source="5" target="24" edge="1">
                    <mxGeometry relative="1" as="geometry"/>
                </mxCell>
                <mxCell id="30" value="&amp;lt;&amp;lt;include&amp;gt;&amp;gt;" style="edgeLabel;html=1;align=center;verticalAlign=middle;resizable=0;points=[];" parent="29" vertex="1" connectable="0">
                    <mxGeometry x="0.4756" y="-5" relative="1" as="geometry">
                        <mxPoint x="-33" y="7" as="offset"/>
                    </mxGeometry>
                </mxCell>
                <mxCell id="5" value="社員を追加する" style="ellipse;whiteSpace=wrap;html=1;" parent="1" vertex="1">
                    <mxGeometry x="400" y="240" width="140" height="70" as="geometry"/>
                </mxCell>
                <mxCell id="35" style="edgeStyle=none;html=1;" parent="1" source="7" target="31" edge="1">
                    <mxGeometry relative="1" as="geometry"/>
                </mxCell>
                <mxCell id="40" value="&amp;lt;&amp;lt;include&amp;gt;&amp;gt;" style="edgeLabel;html=1;align=center;verticalAlign=middle;resizable=0;points=[];" parent="35" vertex="1" connectable="0">
                    <mxGeometry x="-0.1018" y="1" relative="1" as="geometry">
                        <mxPoint as="offset"/>
                    </mxGeometry>
                </mxCell>
                <mxCell id="36" style="edgeStyle=none;html=1;" parent="1" source="7" target="32" edge="1">
                    <mxGeometry relative="1" as="geometry"/>
                </mxCell>
                <mxCell id="41" value="&amp;lt;&amp;lt;include&amp;gt;&amp;gt;" style="edgeLabel;html=1;align=center;verticalAlign=middle;resizable=0;points=[];" parent="36" vertex="1" connectable="0">
                    <mxGeometry x="0.2553" y="-2" relative="1" as="geometry">
                        <mxPoint x="-15" y="-7" as="offset"/>
                    </mxGeometry>
                </mxCell>
                <mxCell id="37" value="&#10;&lt;span style=&quot;color: rgb(0, 0, 0); font-family: Helvetica; font-size: 11px; font-style: normal; font-variant-ligatures: normal; font-variant-caps: normal; font-weight: 400; letter-spacing: normal; orphans: 2; text-align: center; text-indent: 0px; text-transform: none; widows: 2; word-spacing: 0px; -webkit-text-stroke-width: 0px; background-color: rgb(255, 255, 255); text-decoration-thickness: initial; text-decoration-style: initial; text-decoration-color: initial; float: none; display: inline !important;&quot;&gt;&amp;lt;&amp;lt;include&amp;gt;&amp;gt;&lt;/span&gt;&#10;&#10;" style="edgeStyle=none;html=1;" parent="1" source="7" target="33" edge="1">
                    <mxGeometry relative="1" as="geometry"/>
                </mxCell>
                <mxCell id="38" style="edgeStyle=none;html=1;" parent="1" source="7" target="34" edge="1">
                    <mxGeometry relative="1" as="geometry"/>
                </mxCell>
                <mxCell id="42" value="&amp;lt;&amp;lt;include&amp;gt;&amp;gt;" style="edgeLabel;html=1;align=center;verticalAlign=middle;resizable=0;points=[];" parent="38" vertex="1" connectable="0">
                    <mxGeometry x="0.3731" y="-2" relative="1" as="geometry">
                        <mxPoint as="offset"/>
                    </mxGeometry>
                </mxCell>
                <mxCell id="7" value="社員を異動する" style="ellipse;whiteSpace=wrap;html=1;" parent="1" vertex="1">
                    <mxGeometry x="344" y="350" width="140" height="70" as="geometry"/>
                </mxCell>
                <mxCell id="46" style="edgeStyle=none;html=1;" parent="1" source="11" target="43" edge="1">
                    <mxGeometry relative="1" as="geometry"/>
                </mxCell>
                <mxCell id="48" value="&amp;lt;&amp;lt;include&amp;gt;&amp;gt;" style="edgeLabel;html=1;align=center;verticalAlign=middle;resizable=0;points=[];" parent="46" vertex="1" connectable="0">
                    <mxGeometry x="-0.4831" y="1" relative="1" as="geometry">
                        <mxPoint as="offset"/>
                    </mxGeometry>
                </mxCell>
                <mxCell id="50" style="edgeStyle=none;html=1;" parent="1" source="11" target="45" edge="1">
                    <mxGeometry relative="1" as="geometry"/>
                </mxCell>
                <mxCell id="51" value="&amp;lt;&amp;lt;include&amp;gt;&amp;gt;" style="edgeLabel;html=1;align=center;verticalAlign=middle;resizable=0;points=[];" parent="50" vertex="1" connectable="0">
                    <mxGeometry x="0.3494" y="-2" relative="1" as="geometry">
                        <mxPoint as="offset"/>
                    </mxGeometry>
                </mxCell>
                <mxCell id="11" value="社員を削除する" style="ellipse;whiteSpace=wrap;html=1;" parent="1" vertex="1">
                    <mxGeometry x="235" y="500" width="140" height="70" as="geometry"/>
                </mxCell>
                <mxCell id="16" style="edgeStyle=none;html=1;" parent="1" source="3" target="11" edge="1">
                    <mxGeometry relative="1" as="geometry"/>
                </mxCell>
                <mxCell id="17" style="edgeStyle=none;html=1;entryX=0;entryY=0.6;entryDx=0;entryDy=0;entryPerimeter=0;" parent="1" source="3" target="5" edge="1">
                    <mxGeometry relative="1" as="geometry"/>
                </mxCell>
                <mxCell id="18" style="edgeStyle=none;html=1;" parent="1" source="3" target="7" edge="1">
                    <mxGeometry relative="1" as="geometry"/>
                </mxCell>
                <mxCell id="21" style="edgeStyle=none;html=1;" parent="1" source="3" target="19" edge="1">
                    <mxGeometry relative="1" as="geometry"/>
                </mxCell>
                <mxCell id="22" style="edgeStyle=none;html=1;" parent="1" source="3" target="20" edge="1">
                    <mxGeometry relative="1" as="geometry"/>
                </mxCell>
                <mxCell id="3" value="ユーザー" style="shape=umlActor;verticalLabelPosition=bottom;verticalAlign=top;html=1;" parent="1" vertex="1">
                    <mxGeometry x="150" y="320" width="30" height="60" as="geometry"/>
                </mxCell>
                <mxCell id="19" value="社員一覧を表示する" style="ellipse;whiteSpace=wrap;html=1;" parent="1" vertex="1">
                    <mxGeometry x="440" y="140" width="140" height="70" as="geometry"/>
                </mxCell>
                <mxCell id="20" value="組織構成を表示する" style="ellipse;whiteSpace=wrap;html=1;" parent="1" vertex="1">
                    <mxGeometry x="235" y="120" width="140" height="70" as="geometry"/>
                </mxCell>
                <mxCell id="23" value="平社員として追加" style="ellipse;whiteSpace=wrap;html=1;" parent="1" vertex="1">
                    <mxGeometry x="620" y="200" width="140" height="70" as="geometry"/>
                </mxCell>
                <mxCell id="24" value="組織長として追加" style="ellipse;whiteSpace=wrap;html=1;" parent="1" vertex="1">
                    <mxGeometry x="610" y="280" width="140" height="70" as="geometry"/>
                </mxCell>
                <mxCell id="31" value="異動：平社員→平社員" style="ellipse;whiteSpace=wrap;html=1;" parent="1" vertex="1">
                    <mxGeometry x="720" y="360" width="140" height="70" as="geometry"/>
                </mxCell>
                <mxCell id="32" value="異動：平社員→組織長" style="ellipse;whiteSpace=wrap;html=1;" parent="1" vertex="1">
                    <mxGeometry x="610" y="420" width="140" height="70" as="geometry"/>
                </mxCell>
                <mxCell id="33" value="異動：組織長→平社員" style="ellipse;whiteSpace=wrap;html=1;" parent="1" vertex="1">
                    <mxGeometry x="630" y="510" width="140" height="70" as="geometry"/>
                </mxCell>
                <mxCell id="34" value="異動：組織長→組織長" style="ellipse;whiteSpace=wrap;html=1;" parent="1" vertex="1">
                    <mxGeometry x="480" y="510" width="140" height="70" as="geometry"/>
                </mxCell>
                <mxCell id="43" value="削除：平社員" style="ellipse;whiteSpace=wrap;html=1;" parent="1" vertex="1">
                    <mxGeometry x="435" y="600" width="140" height="70" as="geometry"/>
                </mxCell>
                <mxCell id="45" value="削除：組織長" style="ellipse;whiteSpace=wrap;html=1;" parent="1" vertex="1">
                    <mxGeometry x="274" y="620" width="140" height="70" as="geometry"/>
                </mxCell>
            </root>
        </mxGraphModel>
    </diagram>
    <diagram id="JgNJQtiwl_YFSWbjsgjo" name="社員移動パターン">
        <mxGraphModel dx="1386" dy="825" grid="1" gridSize="10" guides="1" tooltips="1" connect="1" arrows="1" fold="1" page="1" pageScale="1" pageWidth="827" pageHeight="1169" math="0" shadow="0">
            <root>
                <mxCell id="0"/>
                <mxCell id="1" parent="0"/>
                <mxCell id="aGrvfAMml-kxTOzgBD-_-2" value="" style="rounded=0;whiteSpace=wrap;html=1;fillColor=default;" vertex="1" parent="1">
                    <mxGeometry x="160" y="100" width="610" height="460" as="geometry"/>
                </mxCell>
            </root>
        </mxGraphModel>
    </diagram>
</mxfile>